<svg width="28" height="28" viewBox="0 0 28 28" fill="none" xmlns="http://www.w3.org/2000/svg">
<circle cx="14" cy="14" r="14" fill="#1DB954"/>
<path d="M14 24C8.47967 23.994 4.00606 19.5204 4 14V13.8C4.10993 8.30455 8.63459 3.92797 14.1307 4.0009C19.6268 4.07382 24.0337 8.5689 23.9978 14.0654C23.9619 19.5618 19.4966 23.9989 14 24ZM13.984 22H14C18.4167 21.9956 21.9942 18.4127 21.992 13.996C21.9898 9.57931 18.4087 6.00002 13.992 6.00002C9.57528 6.00002 5.99421 9.57931 5.992 13.996C5.98979 18.4127 9.56729 21.9956 13.984 22ZM17 18H15V10H17V18ZM13 18H11V10H13V18Z" fill="#191414"/>
</svg>
