<svg xmlns="http://www.w3.org/2000/svg" xmlns:xlink="http://www.w3.org/1999/xlink" viewBox="0,0,256,256" width="26px" height="26px" fill-rule="nonzero"><g fill="#131213" fill-rule="nonzero" stroke="none" stroke-width="1" stroke-linecap="butt" stroke-linejoin="miter" stroke-miterlimit="10" stroke-dasharray="" stroke-dashoffset="0" font-family="none" font-weight="none" font-size="none" text-anchor="none" style="mix-blend-mode: normal"><path d="M0,256v-256h256v256z" id="bgRectangle"></path></g><g fill="#ffffff" fill-rule="nonzero" stroke="none" stroke-width="1" stroke-linecap="butt" stroke-linejoin="miter" stroke-miterlimit="10" stroke-dasharray="" stroke-dashoffset="0" font-family="none" font-weight="none" font-size="none" text-anchor="none" style="mix-blend-mode: normal"><g transform="scale(9.84615,9.84615)"><path d="M13,0c-7.179,0 -13,5.821 -13,13c0,5.5075 3.4265,10.2115 8.2625,12.105c-0.1135,-1.028 -0.2165,-2.6065 0.0455,-3.729c0.236,-1.014 1.5245,-6.462 1.5245,-6.462c0,0 -0.389,-0.779 -0.389,-1.9295c0,-1.808 1.0475,-3.157 2.352,-3.157c1.1095,0 1.6445,0.833 1.6445,1.831c0,1.116 -0.7095,2.783 -1.077,4.328c-0.3065,1.2945 0.649,2.35 1.925,2.35c2.3105,0 4.0865,-2.4365 4.0865,-5.953c0,-3.1125 -2.236,-5.289 -5.4295,-5.289c-3.6985,0 -5.8695,2.7745 -5.8695,5.642c0,1.117 0.43,2.315 0.9675,2.967c0.106,0.129 0.1215,0.2415 0.09,0.3725c-0.0985,0.4105 -0.3175,1.2935 -0.361,1.4745c-0.0565,0.2385 -0.1885,0.288 -0.4345,0.1735c-1.624,-0.756 -2.639,-3.1295 -2.639,-5.0365c0,-4.1005 2.979,-7.867 8.59,-7.867c4.51,0 8.0145,3.213 8.0145,7.5085c0,4.4805 -2.8255,8.086 -6.746,8.086c-1.3175,0 -2.5555,-0.6845 -2.979,-1.493c0,0 -0.652,2.482 -0.8105,3.0905c-0.2935,1.129 -1.0855,2.545 -1.6165,3.408c1.2165,0.376 2.509,0.5795 3.849,0.5795c7.179,0 13,-5.821 13,-13c0,-7.179 -5.8205,-13 -13,-13z"></path></g></g></svg>