<svg width="21" height="21" viewBox="0 0 21 21" fill="none" xmlns="http://www.w3.org/2000/svg">
<path fill-rule="evenodd" clip-rule="evenodd" d="M12.8787 1.70711C14.0503 0.535536 15.9497 0.535534 17.1213 1.70711L19.2929 3.87868C20.4645 5.05026 20.4645 6.94975 19.2929 8.12132L11.7071 15.7071C11.5196 15.8946 11.2652 16 11 16H6C5.44772 16 5 15.5523 5 15V10C5 9.73478 5.10536 9.48043 5.29289 9.29289L12.8787 1.70711ZM15.7071 3.12132C15.3166 2.7308 14.6834 2.7308 14.2929 3.12132L13.4142 4L17 7.58579L17.8787 6.70711C18.2692 6.31658 18.2692 5.68342 17.8787 5.2929L15.7071 3.12132ZM15.5858 9L12 5.41421L7 10.4142V14H10.5858L15.5858 9ZM5 3C3.34315 3 2 4.34315 2 6V16C2 17.6569 3.34315 19 5 19H15C16.6569 19 18 17.6569 18 16V13C18 12.4477 18.4477 12 19 12C19.5523 12 20 12.4477 20 13V16C20 18.7614 17.7614 21 15 21H5C2.23858 21 0 18.7614 0 16V6C0 3.23858 2.23858 1 5 1H8C8.55228 1 9 1.44772 9 2C9 2.55229 8.55228 3 8 3H5Z" fill="white"/>
</svg>
