<svg width="28" height="24" viewBox="0 0 28 24" fill="none" xmlns="http://www.w3.org/2000/svg">
<path d="M20.0029 1.10381e-05C18.8388 -0.00198851 17.6902 0.2677 16.6486 0.787624C15.607 1.30755 14.7011 2.06336 14.0029 2.99494C13.0574 1.73687 11.7402 0.808001 10.2376 0.339765C8.73512 -0.128472 7.12341 -0.112362 5.63055 0.385817C4.1377 0.883996 2.8393 1.83901 1.91909 3.11574C0.998884 4.39246 0.503462 5.92623 0.50293 7.50001C0.50293 16.4829 12.983 23.575 13.5143 23.8725C13.6636 23.9561 13.8318 24 14.0029 24C14.174 24 14.3423 23.9561 14.4916 23.8725C16.7869 22.5282 18.9412 20.9563 20.9219 19.1808C25.2887 15.2506 27.5029 11.3206 27.5029 7.50001C27.5007 5.51158 26.7098 3.60523 25.3037 2.1992C23.8977 0.793165 21.9914 0.00226474 20.0029 1.10381e-05V1.10381e-05Z" fill="#1DB954"/>
</svg>
