<svg width="72" height="64" viewBox="0 0 72 64" fill="none" xmlns="http://www.w3.org/2000/svg">
<path d="M52 2.9435e-05C48.8956 -0.00530268 45.8327 0.713866 43.0551 2.10033C40.2775 3.48679 37.8617 5.50229 36 7.98651C33.4785 4.63166 29.9659 2.15467 25.9592 0.906039C21.9525 -0.342592 17.6546 -0.299631 13.6737 1.02885C9.69271 2.35732 6.23032 4.90404 3.77643 8.30862C1.32254 11.7132 0.00141831 15.8033 0 20C0 43.9543 33.2803 62.8667 34.6969 63.66C35.0951 63.8829 35.5437 64 36 64C36.4563 64 36.9049 63.8829 37.3031 63.66C43.4239 60.0751 49.1687 55.8836 54.4505 51.1488C66.0954 40.6683 72 30.1883 72 20C71.994 14.6975 69.8849 9.61395 66.1355 5.86453C62.3861 2.1151 57.3025 0.00603929 52 2.9435e-05V2.9435e-05Z" fill="white"/>
</svg>
